<mxfile host="app.diagrams.net" modified="2023-12-25T01:18:48.199Z" agent="Mozilla/5.0 (Windows NT 10.0; Win64; x64) AppleWebKit/537.36 (KHTML, like Gecko) Chrome/120.0.0.0 Safari/537.36" version="22.1.11" etag="dnIP6a8fKZr1I6tj0RY7" type="github">
  <diagram name="ページ1" id="TI5WilhIg9VXwRt2O1O1">
    <mxGraphModel>
      <root>
        <mxCell id="0" />
        <mxCell id="1" parent="0" />
      </root>
    </mxGraphModel>
  </diagram>
</mxfile>
